<?xml version="1.0" ?><!DOCTYPE svg  PUBLIC '-//W3C//DTD SVG 1.1//EN'  'http://www.w3.org/Graphics/SVG/1.1/DTD/svg11.dtd'><svg enable-background="new 0 0 32 32" height="32px" id="Слой_1" version="1.1" viewBox="0 0 32 32" width="32px" xml:space="preserve" xmlns="http://www.w3.org/2000/svg" xmlns:xlink="http://www.w3.org/1999/xlink"><g id="Check_Square"><path d="M30,0H2C0.895,0,0,0.895,0,2v28c0,1.105,0.895,2,2,2h28c1.104,0,2-0.895,2-2V2C32,0.895,31.104,0,30,0z    M30,30H2V2h28V30z" fill="#121313"/><path d="M12.301,22.607c0.382,0.379,1.044,0.384,1.429,0l10.999-10.899c0.394-0.39,0.394-1.024,0-1.414   c-0.394-0.391-1.034-0.391-1.428,0L13.011,20.488l-4.281-4.196c-0.394-0.391-1.034-0.391-1.428,0c-0.395,0.391-0.395,1.024,0,1.414   L12.301,22.607z" fill="#121313"/></g><g/><g/><g/><g/><g/><g/></svg>